PathFileType	4	(X/Y/Z)	AB05\squats_2.trc
DataRate	CameraRate	NumFrames	NumMarkers	Units	OrigDataRate	OrigDataStartFrame	OrigNumFrames
200.000000	200.000000	4	35	mm	200.000000	210	336
Frame#	Time	C7			LSHO			STRN			LASI			RASI			LPSI			RPSI			LGTR			RGTR			LTHC			LTHL			LTHR			LKNE			LMKNE			LSHC			LSHL			LSHR			LANK			LMANK			LMT1			LMT5			LCAL			RTHC			RTHL			RTHR			RKNE			RMKNE			RSHC			RSHL			RSHR			RANK			RMANK			RMT1			RMT5			RCAL			
		X1	Y1	Z1	X2	Y2	Z2	X3	Y3	Z3	X4	Y4	Z4	X5	Y5	Z5	X6	Y6	Z6	X7	Y7	Z7	X8	Y8	Z8	X9	Y9	Z9	X10	Y10	Z10	X11	Y11	Z11	X12	Y12	Z12	X13	Y13	Z13	X14	Y14	Z14	X15	Y15	Z15	X16	Y16	Z16	X17	Y17	Z17	X18	Y18	Z18	X19	Y19	Z19	X20	Y20	Z20	X21	Y21	Z21	X22	Y22	Z22	X23	Y23	Z23	X24	Y24	Z24	X25	Y25	Z25	X26	Y26	Z26	X27	Y27	Z27	X28	Y28	Z28	X29	Y29	Z29	X30	Y30	Z30	X31	Y31	Z31	X32	Y32	Z32	X33	Y33	Z33	X34	Y34	Z34	X35	Y35	Z35	

211	1.96	-2168.824018140588	1044.27017410435	2517.025100727694	-2087.968143493847	961.128602465709	2394.416937225754	-2114.625338649971	886.2517775292336	2516.915289382133	-2484.397488933206	686.8395604641481	2384.057153946387	-2466.092296147225	668.9502896029879	2640.411774078713	-2620.135723456416	778.1493529923857	2462.720743702117	-2593.335538898365	780.4519595118538	2579.668616373239	-2546.648770872082	664.7297245321336	2300.707345931344	-2569.382673189919	651.8957326929369	2715.317207366502	-2407.148925821657	676.0507359926399	2376.876402250446	-2514.164740232138	522.3605027709916	2341.573878367788	-2448.568027430291	638.0148962124547	2305.650887789501	-2212.38807844217	494.4761462076484	2276.760103006636	-2192.958044301757	487.7446030084361	2402.179449045617	-2307.829606984531	386.4924973695794	2284.275563568372	-2239.458695200313	239.1087619974444	2314.726563862655	-2229.147948201783	321.3402395652561	2386.585600231637	-2355.885447082582	109.5054779128644	2291.714134344851	-2324.046045851583	108.6723313409612	2385.113536377424	-2199.462900056887	65.22119021120102	2349.126574802755	-2250.086951513662	54.88369300168279	2234.911328859965	-2418.977265780337	72.81437747123267	2349.195428242671	-2491.944575623363	502.8810520632049	2678.390133017268	-2436.607059463342	618.8185828608836	2729.00838200733	-2392.663542752413	660.2747842515987	2643.191669867431	-2217.121828591755	482.5073327711485	2749.767033753363	-2175.060417825013	489.1906897917441	2623.168858020098	-2238.936909150374	249.4050698915719	2706.956933452755	-2279.289622335629	398.108866264696	2748.152319829904	-2214.596399540244	353.8372060620035	2636.954783209063	-2362.613138807778	103.2227974825362	2709.387588240412	-2324.142101685228	107.7535536918971	2619.707494922174	-2209.705278733403	64.04640899094372	2655.400623753396	-2245.680152293009	61.82177838248316	2762.741174097089	-2429.113419439881	73.68360486298144	2654.751678785313	
212	1.965	-2169.199976812896	1045.863199607932	2517.107433493439	-2088.244729984226	962.749824059518	2394.506260049768	-2114.916949748078	887.8792008406683	2517.048241544413	-2484.362638701756	687.8325005482404	2384.120876906576	-2466.074846820281	669.9782842398332	2640.372007780335	-2620.028152967858	779.3187978579483	2462.680762192686	-2593.250233744674	781.5950269518999	2579.652123114719	-2546.53041278573	665.65235378928	2300.737379602199	-2569.344123485163	652.9640465098595	2715.326404057026	-2406.86136011775	676.8613337399681	2377.02448184441	-2514.294809093052	523.2892089561381	2341.695548666073	-2448.455440747432	638.801571009592	2305.868131074362	-2212.586363075693	494.6264410332421	2277.028699151555	-2193.265341393427	487.8351540143149	2402.452632124554	-2307.997014506002	386.5480834666334	2284.385966083935	-2239.56764292736	239.1524537426564	2314.829653714451	-2229.395063867396	321.3882029664093	2386.747832913978	-2355.932256934817	109.4734406943615	2291.670678275417	-2324.096367897922	108.6762508122753	2385.082369747189	-2199.475317263649	65.23942382302843	2349.122012302233	-2250.087672538469	54.88681163431181	2234.908966132536	-2419.026728412981	72.77874026501854	2349.14224676955	-2492.149141859299	503.7843036859131	2678.261513897929	-2436.550602046881	619.5610672302136	2728.877454072622	-2392.468368363231	661.077359108886	2643.135163121284	-2217.363830147198	482.6697524859334	2749.577899176011	-2175.375651322619	489.3297151404358	2622.962898206615	-2239.058469429458	249.4632417744581	2706.886665516243	-2279.491287774532	398.1917812095713	2748.032277296017	-2214.890767775853	353.9240528844509	2636.870975676265	-2362.640457959114	103.1979198349007	2709.416915701403	-2324.185786260775	107.752989129952	2619.736035709004	-2209.712320930743	64.04953655759608	2655.40272219709	-2245.678050800749	61.83054192058034	2762.750339519685	-2429.150153201272	73.65982013550025	2654.770108816274	
213	1.97	-2169.580290950727	1047.508443712873	2517.175913160248	-2088.52065915852	964.4184014432212	2394.583055640178	-2115.213029630227	889.5609864854991	2517.172864380644	-2484.315423586207	688.851638753707	2384.180140607491	-2466.045044150574	671.040042758657	2640.331576191413	-2619.908911635506	780.5216312644584	2462.631346220942	-2593.154636229369	782.7770224812972	2579.627514790088	-2546.399152954799	666.5965765372653	2300.763499353785	-2569.295635961503	654.0738653903155	2715.331820263421	-2406.551871661653	677.6912483818977	2377.166180377234	-2514.416521915839	524.240305039843	2341.817953544015	-2448.32968222618	639.6057175949288	2306.083228165282	-2212.782154302659	494.7759684755844	2277.298035221111	-2193.573305988139	487.9282446279128	2402.7270590965	-2308.160814994122	386.6045451246052	2284.491070762844	-2239.675957154185	239.1952281399635	2314.932663340672	-2229.646828515286	321.4356662790855	2386.909535901727	-2355.980273349966	109.4394342847407	2291.623472971199	-2324.148868242638	108.6810558144503	2385.048119166284	-2199.487683764585	65.2569749299084	2349.118628405881	-2250.087259062652	54.88973519255455	2234.906774915411	-2419.078758360841	72.74142825890173	2349.086102401332	-2492.353594584124	504.7213443693728	2678.137073749053	-2436.487130899371	620.3318077485627	2728.746036038725	-2392.253676743192	661.9011535646518	2643.081931618051	-2217.611777367997	482.8349149769759	2749.406067980094	-2175.693218408583	489.4718128915509	2622.776617542406	-2239.183111663864	249.5221437047052	2706.825930750388	-2279.695018615665	398.2757024254333	2747.928614006934	-2215.18939591834	354.0168252249547	2636.799466758904	-2362.668187519597	103.1725261633076	2709.447581778921	-2324.228836909938	107.7546552041832	2619.76680169894	-2209.719191763771	64.05327130451802	2655.405305247784	-2245.675028280872	61.83847112920157	2762.760967325957	-2429.183690543498	73.63543575511598	2654.790252701432	
214	1.975	-2169.965165129089	1049.20715234323	2517.230638013979	-2088.796233712195	966.1356314906247	2394.646960450234	-2115.513196473996	891.2984040033444	2517.288673590276	-2484.255283181287	689.8977692301494	2384.234512297448	-2466.002257267781	672.1365599228145	2640.291059562142	-2619.777743778149	781.7582104354383	2462.572870193066	-2593.048809107654	783.9984080615997	2579.595059419305	-2546.254776419079	667.5631411149836	2300.785622539973	-2569.236954295254	655.2254949853086	2715.333549283579	-2406.220121769034	678.539851429145	2377.30017091917	-2514.529415240286	525.2140117151656	2341.940827516557	-2448.190354640455	640.4271048661923	2306.294869967696	-2212.975561960237	494.9242926630248	2277.567496709072	-2193.881511987855	488.0242755402862	2403.001553707039	-2308.320862589117	386.6615830110379	2284.590620852099	-2239.783846701323	239.2367822776508	2315.035682650077	-2229.903131327177	321.4827099783913	2387.069908337562	-2356.029494731029	109.4034494787601	2291.572282092277	-2324.203547680057	108.6868696349529	2385.010575354099	-2199.500018709858	65.27401041336779	2349.116355812528	-2250.085695254325	54.8924211834128	2234.904668562174	-2419.133246368838	72.70241705925878	2349.027025966279	-2492.557562306264	505.6926770251616	2678.01707361673	-2436.41630192794	621.130926087335	2728.614658559881	-2392.018900281824	662.7462925300221	2643.032637425269	-2217.865259538641	483.003087846607	2749.252429068836	-2176.012940487848	489.616605351865	2622.61129044296	-2239.310458746236	249.5815594090564	2706.775004986281	-2279.900772029212	398.3606200343995	2747.842080641011	-2215.491969778533	354.1155668040609	2636.74075760395	-2362.69640616575	103.1466978159836	2709.479653168458	-2324.271283672461	107.7584777265096	2619.799775311409	-2209.72579505404	64.0577838311427	2655.408256394352	-2245.671085502247	61.84558476434673	2762.77310013791	-2429.213880482499	73.61039876708149	2654.812290119502	
